<svg width="16" height="9" viewBox="0 0 16 9" fill="none" xmlns="http://www.w3.org/2000/svg">
<path d="M2.69318 8.84659H2.38419e-07V0.119318H2.8125C3.65909 0.119318 4.38352 0.294034 4.9858 0.643466C5.58807 0.990057 6.04972 1.48864 6.37074 2.1392C6.69176 2.78693 6.85227 3.5625 6.85227 4.46591C6.85227 5.375 6.69034 6.15767 6.36648 6.81392C6.04261 7.46733 5.57102 7.97017 4.9517 8.32244C4.33239 8.67188 3.57955 8.84659 2.69318 8.84659ZM1.05682 7.90909H2.625C3.34659 7.90909 3.9446 7.76989 4.41903 7.49148C4.89347 7.21307 5.24716 6.81676 5.48011 6.30256C5.71307 5.78835 5.82955 5.17614 5.82955 4.46591C5.82955 3.76136 5.71449 3.15483 5.48438 2.64631C5.25426 2.13494 4.91051 1.7429 4.45313 1.47017C3.99574 1.1946 3.42614 1.05682 2.74432 1.05682H1.05682V7.90909ZM14.5909 2.84659C14.4972 2.55966 14.3736 2.30256 14.2202 2.07528C14.0696 1.84517 13.8892 1.64915 13.679 1.48722C13.4716 1.32528 13.2358 1.2017 12.9716 1.11648C12.7074 1.03125 12.4176 0.988636 12.1023 0.988636C11.5852 0.988636 11.1151 1.12216 10.6918 1.3892C10.2685 1.65625 9.93182 2.04972 9.68182 2.5696C9.43182 3.08949 9.30682 3.72727 9.30682 4.48295C9.30682 5.23864 9.43324 5.87642 9.68608 6.39631C9.93892 6.91619 10.2813 7.30966 10.7131 7.5767C11.1449 7.84375 11.6307 7.97727 12.1705 7.97727C12.6705 7.97727 13.1108 7.87074 13.4915 7.65767C13.875 7.44176 14.1733 7.13778 14.3864 6.74574C14.6023 6.35085 14.7102 5.88636 14.7102 5.35227L15.0341 5.42045H12.4091V4.48295H15.733V5.42045C15.733 6.1392 15.5795 6.7642 15.2727 7.29545C14.9688 7.8267 14.5483 8.23864 14.0114 8.53125C13.4773 8.82102 12.8636 8.96591 12.1705 8.96591C11.3977 8.96591 10.7188 8.78409 10.1335 8.42045C9.55114 8.05682 9.09659 7.53977 8.76989 6.86932C8.44602 6.19886 8.28409 5.40341 8.28409 4.48295C8.28409 3.79261 8.37642 3.17187 8.56108 2.62074C8.74858 2.06676 9.01278 1.59517 9.35369 1.20597C9.6946 0.816761 10.098 0.518466 10.5639 0.31108C11.0298 0.103693 11.5426 -2.38419e-07 12.1023 -2.38419e-07C12.5625 -2.38419e-07 12.9915 0.069602 13.3892 0.208807C13.7898 0.34517 14.1463 0.539772 14.4588 0.792613C14.7741 1.04261 15.0369 1.34233 15.2472 1.69176C15.4574 2.03835 15.6023 2.4233 15.6818 2.84659H14.5909Z" fill="#6222CC"/>
</svg>
